<svg xmlns="http://www.w3.org/2000/svg" width="267" height="267" viewBox="0 0 267 267" version="1.1"><path d="" stroke="none" fill="#70fc04" fill-rule="evenodd"/><path d="M 141 5.645 C 141 6.713, 216.097 178.314, 217.007 179.325 C 217.415 179.778, 227.667 176.923, 239.788 172.979 L 261.828 165.809 262.407 156.654 C 263.874 133.484, 265.059 94.667, 264.320 93.999 C 263.175 92.964, 143.785 6.526, 142.250 5.620 C 141.563 5.214, 141 5.225, 141 5.645 M 67.575 47.554 C 32.417 70.321, 3.266 89.334, 2.795 89.805 C 2.031 90.569, 5.329 160.713, 6.164 161.463 C 8.066 163.171, 49.419 179.981, 50.084 179.316 C 52.044 177.356, 133.707 6.006, 132.646 6.079 C 132.016 6.123, 102.734 24.786, 67.575 47.554 M 95.500 94.163 C 72.950 141.533, 54.370 180.615, 54.211 181.012 C 53.908 181.770, 129.946 231.631, 130.932 231.322 C 131.988 230.990, 211.492 182.825, 212.379 181.979 C 212.875 181.506, 197.295 144.523, 176.612 97.079 C 134.196 -0.216, 137.840 7.995, 137.089 8.018 C 136.765 8.029, 118.050 46.794, 95.500 94.163 M 5 167.329 C 5 167.979, 126.577 262, 127.417 262 C 127.738 262, 128 255.746, 128 248.102 L 128 234.204 87.750 208.781 L 47.500 183.358 27.500 175.583 C 16.500 171.306, 6.938 167.578, 6.250 167.297 C 5.563 167.016, 5 167.030, 5 167.329 M 237.483 177.856 L 217.465 183.561 175.239 209.030 L 133.013 234.500 133.007 248.250 C 133.003 255.813, 133.191 262, 133.425 262 C 133.659 262, 161.446 242.522, 195.175 218.717 C 228.904 194.911, 257.613 174.661, 258.973 173.717 C 261.166 172.194, 261.223 172.008, 259.473 172.075 C 258.388 172.117, 248.492 174.718, 237.483 177.856" stroke="none" fill="#6cfc04" fill-rule="evenodd"/></svg>