<svg xmlns="http://www.w3.org/2000/svg" width="267" height="267" viewBox="0 0 267 267" version="1.1"><path d="" stroke="none" fill="#70fc04" fill-rule="evenodd"/><path d="M 94.071 15.070 C 73.486 22.195, 56.563 28.131, 56.466 28.262 C 56.369 28.393, 46.325 41.924, 34.145 58.331 C 21.965 74.738, 12 88.487, 12 88.886 C 12 89.759, 58.702 105.277, 59.957 104.821 C 60.442 104.644, 76.846 91.900, 96.410 76.500 L 131.982 48.500 131.991 25.250 C 131.996 12.462, 131.887 2.026, 131.750 2.058 C 131.613 2.090, 114.657 7.946, 94.071 15.070 M 139.989 21.643 C 139.983 32.564, 139.716 43.082, 139.396 45.015 L 138.815 48.529 173.550 76.015 C 192.655 91.132, 209.296 104.136, 210.530 104.913 C 212.579 106.203, 214.746 105.637, 235.399 98.414 C 250.538 93.119, 257.867 90.096, 257.553 89.277 C 257.294 88.604, 247.607 74.362, 236.024 57.629 L 214.965 27.205 179.233 15.192 C 159.580 8.584, 142.713 2.865, 141.750 2.482 C 140.119 1.833, 139.999 3.135, 139.989 21.643 M 99 81.156 C 79.475 96.558, 63.548 109.712, 63.607 110.386 C 63.665 111.060, 69.944 130.324, 77.560 153.195 L 91.408 194.777 124.454 195.464 C 142.629 195.842, 163.054 196.004, 169.842 195.825 L 182.184 195.500 195.588 153 C 202.960 129.625, 208.994 110.210, 208.996 109.856 C 209.001 109.062, 137.523 54.104, 135.766 53.550 C 135.069 53.331, 118.525 65.754, 99 81.156 M 7.563 107.637 C 7.891 116.912, 8.491 136.425, 8.896 151 L 9.631 177.500 32.457 208.750 C 45.010 225.937, 55.608 240, 56.008 240 C 56.407 240, 64.075 230.918, 73.048 219.818 L 89.363 199.636 74.123 153.882 L 58.884 108.128 34.192 99.917 C 20.611 95.401, 8.930 91.496, 8.234 91.239 C 7.229 90.870, 7.090 94.255, 7.563 107.637 M 237 104.889 L 214.500 112.659 200.318 155.464 L 186.136 198.269 199.734 216.885 C 207.212 227.123, 213.664 235.884, 214.070 236.354 C 214.476 236.824, 224.976 222.936, 237.404 205.491 L 260 173.774 260 135.387 C 260 114.274, 259.887 97.027, 259.750 97.059 C 259.613 97.092, 249.375 100.615, 237 104.889 M 76.230 221.194 C 68.382 232.285, 62.307 241.663, 62.730 242.032 C 63.154 242.402, 79.520 247.686, 99.099 253.775 L 134.698 264.845 171.599 253.036 C 196.632 245.025, 208.402 240.817, 208.197 239.953 C 208.030 239.253, 201.791 230.202, 194.333 219.840 L 180.772 201 135.636 201.014 L 90.500 201.027 76.230 221.194" stroke="none" fill="#6cfc04" fill-rule="evenodd"/></svg>