<svg xmlns="http://www.w3.org/2000/svg" width="267" height="267" viewBox="0 0 267 267" version="1.1"><path d="" stroke="none" fill="#70fc04" fill-rule="evenodd"/><path d="M 92.211 40.834 C 73.395 63.339, 58 82.033, 58 82.376 C 58 82.719, 89.050 83, 127 83 C 166.422 83, 196 82.620, 196 82.114 C 196 80.420, 129.724 0.498, 128.079 0.208 C 126.957 0.011, 115.383 13.121, 92.211 40.834 M 146.095 14.549 C 149.723 18.922, 163.599 35.775, 176.932 52 C 190.266 68.225, 201.630 81.665, 202.187 81.866 C 203.327 82.279, 234.784 68.313, 236.800 66.498 C 237.867 65.538, 237.867 65.146, 236.800 64.315 C 234.523 62.540, 143.285 8.047, 141.353 7.307 C 140.334 6.917, 142.468 10.176, 146.095 14.549 M 67.337 38.821 C 42.511 55.144, 22.492 68.815, 22.850 69.200 C 23.892 70.322, 49.981 82, 51.446 82 C 52.743 82, 113.532 10.199, 112.830 9.496 C 112.635 9.301, 92.163 22.497, 67.337 38.821 M 222.666 77.466 C 213.957 81.482, 206.363 85.237, 205.791 85.809 C 205.072 86.528, 210.714 101.994, 224.126 136.060 L 243.500 185.271 243.825 178.385 C 244.003 174.598, 243.665 153.050, 243.073 130.500 C 242.482 107.950, 241.998 85.112, 241.999 79.750 C 242 71.100, 241.803 70.009, 240.250 70.081 C 239.287 70.126, 231.375 73.449, 222.666 77.466 M 19.606 79.250 C 19.302 82.688, 18.588 103.050, 18.020 124.500 C 17.451 145.950, 16.719 168, 16.393 173.500 C 15.989 180.304, 16.126 183.180, 16.821 182.500 C 18.473 180.884, 50.128 86.720, 49.276 85.956 C 48.502 85.261, 21.329 73, 20.563 73 C 20.341 73, 19.910 75.813, 19.606 79.250 M 56 87.594 C 56 89.081, 127.614 208.954, 128.500 208.950 C 129.380 208.946, 198 89.133, 198 87.601 C 198 87.270, 166.050 87, 127 87 C 87.950 87, 56 87.267, 56 87.594 M 166.609 151.109 C 147.509 184.717, 132.081 212.414, 132.326 212.659 C 132.979 213.313, 242.302 198.098, 243.165 197.234 C 243.812 196.586, 203.381 92.047, 201.917 90.584 C 201.599 90.265, 185.710 117.502, 166.609 151.109 M 34.639 143.596 C 24.759 172.678, 17.162 196.549, 17.639 197.009 C 18.112 197.467, 40.775 201.038, 68 204.944 C 95.225 208.849, 119.001 212.317, 120.836 212.650 C 123.749 213.178, 124.130 213.008, 123.836 211.309 C 123.484 209.268, 53.868 91.063, 53 91.032 C 52.725 91.022, 44.462 114.676, 34.639 143.596 M 26.550 203.868 C 28.476 205.628, 126.816 261, 128.016 261 C 128.957 261, 129.110 258.882, 128.647 252.250 C 128.311 247.438, 127.741 237.751, 127.381 230.724 C 127.021 223.698, 126.368 217.727, 125.929 217.456 C 125.205 217.008, 28.959 203, 26.607 203 C 25.975 203, 25.954 203.323, 26.550 203.868 M 189 209.061 C 166.175 212.274, 143.725 215.430, 139.111 216.074 L 130.722 217.246 131.374 231.873 C 132.532 257.873, 133.045 262.196, 134.884 261.498 C 137.077 260.667, 233.254 205.026, 234.450 203.897 C 235.908 202.520, 233.627 202.780, 189 209.061" stroke="none" fill="#6cfc04" fill-rule="evenodd"/></svg>