<svg xmlns="http://www.w3.org/2000/svg" width="267" height="267" viewBox="0 0 267 267" version="1.1"><path d="" stroke="none" fill="#70fc04" fill-rule="evenodd"/><path d="M 66.791 113.255 C 31.201 174.990, 2.506 225.648, 3.026 225.828 C 3.545 226.009, 33.002 209.172, 68.485 188.412 L 133 150.668 133 75.834 C 133 34.675, 132.662 1.002, 132.250 1.005 C 131.838 1.008, 102.381 51.520, 66.791 113.255 M 135 75.834 L 135 150.668 199.515 188.412 C 234.998 209.172, 264.455 226.009, 264.974 225.828 C 265.999 225.472, 136.984 1.013, 135.750 1.005 C 135.338 1.002, 135 34.675, 135 75.834 M 85.347 181.307 C 59.412 196.263, 30.508 212.775, 21.115 218 C 11.722 223.225, 4.029 228.063, 4.019 228.750 C 4.004 229.744, 30.657 230, 134 230 C 205.500 230, 263.982 229.662, 263.959 229.250 C 263.909 228.330, 136.528 154.908, 134.180 154.445 C 133.256 154.264, 111.281 166.351, 85.347 181.307" stroke="none" fill="#6cfc04" fill-rule="evenodd"/></svg>