<svg xmlns="http://www.w3.org/2000/svg" width="267" height="267" viewBox="0 0 267 267" version="1.1"><path d="" stroke="none" fill="#70fc04" fill-rule="evenodd"/><path d="M 32.922 27.274 C 31.066 28.524, 28.524 31.066, 27.274 32.922 L 25 36.296 25 133.500 L 25 230.704 27.274 234.078 C 28.524 235.934, 31.066 238.476, 32.922 239.726 L 36.296 242 133.500 242 L 230.704 242 234.078 239.726 C 235.934 238.476, 238.476 235.934, 239.726 234.078 L 242 230.704 242 133.500 L 242 36.296 239.726 32.922 C 238.476 31.066, 235.934 28.524, 234.078 27.274 L 230.704 25 133.500 25 L 36.296 25 32.922 27.274" stroke="none" fill="#6cfc04" fill-rule="evenodd"/></svg>