<svg xmlns="http://www.w3.org/2000/svg" width="267" height="267" viewBox="0 0 267 267" version="1.1"><path d="" stroke="none" fill="#70fc04" fill-rule="evenodd"/><path d="M 74.644 39.771 L 21.912 78.500 22.562 130 C 22.920 158.325, 23.451 181.725, 23.743 182 C 24.035 182.275, 24.444 182.050, 24.652 181.500 C 24.860 180.950, 48.202 140.266, 76.524 91.092 C 104.845 41.918, 127.873 1.539, 127.696 1.363 C 127.520 1.186, 103.646 18.470, 74.644 39.771 M 139.398 2.605 C 139.981 4.135, 241.533 179.475, 242.671 180.917 C 242.852 181.146, 243.172 181.146, 243.381 180.917 C 243.591 180.688, 244.082 157.775, 244.473 130 L 245.183 79.500 199.923 46 C 175.030 27.575, 151.066 9.847, 146.669 6.605 C 141.527 2.813, 138.933 1.386, 139.398 2.605 M 132.372 3.163 C 131.903 3.898, 108.468 44.550, 80.294 93.500 L 29.069 182.500 74.284 182.733 C 99.153 182.861, 146.360 182.636, 179.190 182.233 L 238.880 181.500 187.062 92.672 C 158.563 43.817, 134.790 3.390, 134.235 2.835 C 133.556 2.156, 132.947 2.263, 132.372 3.163 M 82.500 186.987 L 28.500 187.500 78 224.517 C 105.225 244.877, 128.883 262.513, 130.574 263.710 L 133.648 265.886 181.574 229.689 C 207.933 209.780, 231.702 191.806, 234.394 189.746 L 239.288 186 187.894 186.237 C 159.627 186.367, 112.200 186.705, 82.500 186.987" stroke="none" fill="#6cfc04" fill-rule="evenodd"/></svg>