<?xml version="1.0" encoding="UTF-8"?>
<svg version="1.1" xmlns="http://www.w3.org/2000/svg" width="350" height="350">
<path d="M0 0 C1.85695197 0.00138269 1.85695197 0.00138269 3.75141811 0.00279331 C4.43830934 0.00193889 5.12520056 0.00108446 5.83290666 0.00020415 C8.15150846 -0.00145262 10.47003908 0.00407389 12.7886343 0.00952244 C14.44393315 0.00980429 16.09923213 0.00964661 17.75453091 0.00907993 C22.26260324 0.00879189 26.7706492 0.01468964 31.27871537 0.02165389 C35.98461128 0.02788638 40.69050773 0.02849114 45.39640713 0.0296793 C54.31412025 0.03279293 63.23182118 0.04100673 72.14952892 0.05102879 C82.29929688 0.06218895 92.44906541 0.06770013 102.59883797 0.07272422 C123.48364344 0.08318932 144.36843791 0.10078937 165.25323391 0.12304783 C165.64100506 0.81785755 166.02877621 1.51266727 166.428298 2.22853184 C168.22434826 5.44526784 170.0219872 8.66111348 171.81964016 11.87695408 C172.42924587 12.9693137 173.03885159 14.06167332 173.6669302 15.18713474 C177.76876956 22.52163032 181.94512611 29.80836819 186.19073391 37.06054783 C186.83784328 38.16664402 187.48495266 39.27274021 188.15167141 40.41235447 C188.65956203 41.27723484 189.16745266 42.14211521 189.69073391 43.03320408 C193.38536701 49.33875202 197.04176072 55.66599219 200.69073391 61.99804783 C201.31327053 63.07820164 201.93580715 64.15835545 202.57720852 65.27124119 C203.83900217 67.46101117 205.10063925 69.65087138 206.36212063 71.84082127 C210.11056621 78.34664393 213.86417572 84.84948866 217.61700344 91.35278416 C220.80652186 96.88042064 223.99431212 102.40904164 227.17901516 107.93945408 C227.82483547 109.06013279 228.47065578 110.1808115 229.13604641 111.33545017 C230.40702474 113.54197404 231.67659224 115.74931126 232.94464016 117.95752048 C235.73132723 122.80072901 238.53892386 127.62440511 241.45245266 132.39257908 C242.16921169 133.57388401 242.16921169 133.57388401 242.90045071 134.77905369 C243.77262008 136.20968849 244.65489063 137.63423758 245.54937649 139.05102634 C248.31405987 143.59693462 248.31405987 143.59693462 248.04009914 145.96655369 C247.0223323 148.75586009 245.67398526 151.22903998 244.22589016 153.82226658 C243.6039175 154.93996433 242.98194485 156.05766209 242.34112453 157.20922947 C241.66625822 158.4098173 240.99112202 159.61025346 240.31573391 160.81054783 C239.62351119 162.04800413 238.93145497 163.28555359 238.23956203 164.52319431 C233.88628636 172.29405391 229.44102927 180.00550622 224.88995266 187.66211033 C221.56447588 193.26550628 218.31829138 198.91462249 215.06573391 204.56054783 C214.42764797 205.66793308 213.78956203 206.77531834 213.13214016 207.91626072 C211.824167 210.18673862 210.51638878 212.45732883 209.20880032 214.7280283 C206.05991335 220.19474766 202.90636573 225.65877616 199.75323391 231.12304783 C198.50713087 233.28319872 197.26103714 235.44335498 196.01495266 237.60351658 C193.47707398 242.00263858 190.93786808 246.40099104 188.39776516 250.79882908 C187.75581203 251.91064548 187.11385891 253.02246189 186.45245266 254.1679697 C185.26142637 256.23068914 184.07006522 258.2932153 182.87823391 260.3554697 C178.90226004 267.24258766 174.95215558 274.14425433 171.00787258 281.0495615 C170.45324085 282.02037411 169.89860912 282.99118671 169.32717037 283.99141788 C167.96910106 286.36857619 166.61112458 288.74578748 165.25323391 291.12304783 C143.48736675 291.42688182 121.7218497 291.65604605 99.95429134 291.79660606 C89.8468371 291.86360946 79.74070121 291.95493352 69.63409328 292.10376072 C60.82387934 292.2334356 52.01462008 292.31722655 43.20347834 292.34619826 C38.53844625 292.36313274 33.87614491 292.40284457 29.2119894 292.49753857 C24.81815952 292.58601866 20.42817401 292.61295892 16.03353786 292.59344769 C14.42412791 292.59701448 12.81458507 292.62275461 11.20594692 292.672719 C6.32845435 292.81673958 1.92492426 292.73474084 -2.74676609 291.12304783 C-6.5215362 287.17292262 -8.50312871 283.11257848 -10.74676609 278.12304783 C-11.89179427 276.11963915 -13.05524849 274.12650434 -14.24676609 272.15039158 C-15.41549741 270.12163167 -16.5820953 268.09164153 -17.74676609 266.06054783 C-18.38412693 264.95275974 -19.02148777 263.84497166 -19.67816257 262.70361423 C-24.74768355 253.88867828 -29.78462779 245.05510898 -34.82220554 236.22189426 C-39.97881966 227.18212092 -45.19928892 218.18144441 -50.45794773 209.20068455 C-55.28053779 200.95228911 -60.02469881 192.66030627 -64.7521677 184.35720921 C-68.41469129 177.92537056 -72.09404062 171.50481215 -75.83660984 165.11914158 C-76.8082407 163.46108494 -76.8082407 163.46108494 -77.79950047 161.7695322 C-79.02862779 159.67683148 -80.26028026 157.58561122 -81.49481297 155.4960947 C-82.04073093 154.56732517 -82.5866489 153.63855564 -83.14910984 152.68164158 C-83.62856052 151.87009617 -84.10801121 151.05855076 -84.6019907 150.22241306 C-85.74676609 148.12304783 -85.74676609 148.12304783 -86.74676609 145.12304783 C-85.73382664 142.75732517 -85.73382664 142.75732517 -84.13348484 139.95898533 C-83.55026463 138.92846043 -82.96704441 137.89793552 -82.36615086 136.83618259 C-81.72862888 135.73459812 -81.09110691 134.63301365 -80.43426609 133.49804783 C-79.78707615 132.3623032 -79.13988621 131.22655857 -78.47308445 130.05639744 C-74.1850019 122.55185411 -69.82789481 115.08817589 -65.41864109 107.65429783 C-62.08674701 102.02436928 -58.82528936 96.35385613 -55.55926609 90.68554783 C-54.92126072 89.57832371 -54.28325535 88.47109959 -53.62591648 87.33032322 C-52.31787132 85.05967715 -51.01001161 82.78892425 -49.7023325 80.51806736 C-46.55344558 75.05134808 -43.39998119 69.58727137 -40.24676609 64.12304783 C-36.48311244 57.60072344 -32.72031986 51.07791019 -28.96160984 44.55273533 C-22.61856818 33.54357628 -16.26183865 22.54248158 -9.87176609 11.56054783 C-8.96962376 10.00666355 -8.96962376 10.00666355 -8.04925632 8.42138767 C-7.49826267 7.47602146 -6.94726902 6.53065525 -6.37957859 5.55664158 C-5.89376316 4.72189304 -5.40794773 3.88714451 -4.90741062 3.02710056 C-3.14816163 0.14102928 -3.14816163 0.14102928 0 0 Z " fill="#AAAAAA" transform="translate(94.74676609039307,29.876952171325684)"/>
</svg>
