<?xml version="1.0" encoding="UTF-8"?>
<svg version="1.1" xmlns="http://www.w3.org/2000/svg" width="350" height="350">
<path d="M0 0 C8.07659627 3.28664707 15.63832443 7.99879743 23.125 12.4375 C25.23402286 13.67768236 27.34341061 14.91724438 29.453125 16.15625 C31.07057617 17.10757812 31.07057617 17.10757812 32.72070312 18.078125 C38.0899469 21.22484083 43.48205548 24.33163277 48.875 27.4375 C49.95555664 28.06011719 51.03611328 28.68273437 52.14941406 29.32421875 C54.34171575 30.5873804 56.53409859 31.8504012 58.7265625 33.11328125 C61.9647516 34.9796838 65.20139438 36.84873763 68.4375 38.71875 C79.06058895 44.85614044 89.69437501 50.97367122 100.35180664 57.05117798 C110.04746367 62.58099311 119.72759 68.136327 129.375 73.75 C130.36129395 74.32242432 131.34758789 74.89484863 132.36376953 75.48461914 C133.28270996 76.02078857 134.20165039 76.55695801 135.1484375 77.109375 C135.94427246 77.57311523 136.74010742 78.03685547 137.56005859 78.51464844 C138.36523926 79.00481445 139.17041992 79.49498047 140 80 C141.0254423 80.54916958 142.05088459 81.09833916 143.10740089 81.66415024 C146 84 146 84 146.73828697 87.11590958 C146.73275621 88.35111217 146.72722546 89.58631477 146.7215271 90.85894775 C146.72665365 91.54840225 146.7317802 92.23785675 146.7370621 92.9482038 C146.74694553 95.25841346 146.71395322 97.56600798 146.68115234 99.87597656 C146.67945989 101.53171731 146.68040991 103.18746256 146.68380737 104.84320068 C146.68553061 109.33908195 146.65022814 113.83400495 146.60836363 118.32966328 C146.57088394 123.02748584 146.56733346 127.7253298 146.56021118 132.42327881 C146.54155417 141.31984873 146.49230566 150.21597686 146.43211424 159.11235213 C146.36507565 169.24036386 146.33206679 179.36839656 146.30194163 189.49657488 C146.2392073 210.33129661 146.1336557 231.16562049 146 252 C145.30519028 252.38777115 144.61038055 252.7755423 143.89451599 253.17506409 C140.67777999 254.97111435 137.46193435 256.76875329 134.24609375 258.56640625 C133.15373413 259.17601196 132.06137451 259.78561768 130.93591309 260.41369629 C123.60141751 264.51553565 116.31467964 268.69189221 109.0625 272.9375 C107.95640381 273.58460938 106.85030762 274.23171875 105.71069336 274.8984375 C104.84581299 275.40632813 103.98093262 275.91421875 103.08984375 276.4375 C96.78429581 280.1321331 90.45705564 283.78852681 84.125 287.4375 C83.04484619 288.06003662 81.96469238 288.68257324 80.85180664 289.32397461 C78.66203666 290.58576826 76.47217645 291.84740534 74.28222656 293.10888672 C67.7764039 296.8573323 61.27355917 300.61094181 54.77026367 304.36376953 C49.24262719 307.55328795 43.71400619 310.74107821 38.18359375 313.92578125 C36.50257568 314.89451172 36.50257568 314.89451172 34.78759766 315.8828125 C32.58107379 317.15379083 30.37373657 318.42335833 28.16552734 319.69140625 C23.32231881 322.47809332 18.49864272 325.28568995 13.73046875 328.19921875 C12.54916382 328.91597778 12.54916382 328.91597778 11.34399414 329.6472168 C9.91335934 330.51938617 8.48881025 331.40165672 7.07202148 332.29614258 C2.52611321 335.06082596 2.52611321 335.06082596 0.15649414 334.78686523 C-2.63281226 333.76909839 -5.10599215 332.42075135 -7.69921875 330.97265625 C-8.8169165 330.35068359 -9.93461426 329.72871094 -11.08618164 329.08789062 C-12.28676947 328.41302431 -13.48720563 327.73788811 -14.6875 327.0625 C-15.9249563 326.37027728 -17.16250576 325.67822106 -18.40014648 324.98632812 C-26.17100608 320.63305245 -33.8824584 316.18779536 -41.5390625 311.63671875 C-47.14245845 308.31124198 -52.79157467 305.06505747 -58.4375 301.8125 C-59.54488525 301.17441406 -60.65227051 300.53632813 -61.79321289 299.87890625 C-64.06369079 298.57093309 -66.334281 297.26315487 -68.60498047 295.95556641 C-74.07169983 292.80667944 -79.53572833 289.65313182 -85 286.5 C-87.16015089 285.25389697 -89.32030716 284.00780323 -91.48046875 282.76171875 C-95.87959075 280.22384007 -100.27794321 277.68463417 -104.67578125 275.14453125 C-105.78759766 274.50257813 -106.89941406 273.860625 -108.04492188 273.19921875 C-110.10764131 272.00819246 -112.17016747 270.81683131 -114.23242188 269.625 C-121.11953983 265.64902613 -128.0212065 261.69892167 -134.92651367 257.75463867 C-135.89732628 257.20000694 -136.86813889 256.64537521 -137.86837006 256.07393646 C-140.24552836 254.71586715 -142.62273965 253.35789067 -145 252 C-145.30383399 230.23413284 -145.53299822 208.46861579 -145.67355824 186.70105743 C-145.74056163 176.59360319 -145.83188569 166.4874673 -145.98071289 156.38085938 C-146.11038777 147.57064543 -146.19417872 138.76138617 -146.22315043 129.95024443 C-146.24008491 125.28521234 -146.27979674 120.622911 -146.37449074 115.95875549 C-146.46297083 111.56492561 -146.48991109 107.1749401 -146.47039986 102.78030396 C-146.47396665 101.170894 -146.49970678 99.56135116 -146.54967117 97.95271301 C-146.69369175 93.07522044 -146.61169301 88.67169036 -145 84 C-141.04987479 80.22522989 -136.98953065 78.24363738 -132 76 C-129.99659132 74.85497182 -128.00345651 73.6915176 -126.02734375 72.5 C-123.99858384 71.33126868 -121.9685937 70.16467079 -119.9375 69 C-118.82971191 68.36263916 -117.72192383 67.72527832 -116.58056641 67.06860352 C-107.76563045 61.99908254 -98.93206115 56.9621383 -90.09884644 51.92456055 C-81.05907309 46.76794643 -72.05839659 41.54747717 -63.07763672 36.28881836 C-54.82947004 31.46636205 -46.5368631 26.72396602 -38.23516846 21.99459839 C-28.54877463 16.47507418 -18.90411984 10.88834961 -9.28515625 5.25195312 C-8.35316406 4.70603516 -7.42117187 4.16011719 -6.4609375 3.59765625 C-5.64415527 3.11820557 -4.82737305 2.63875488 -3.98583984 2.14477539 C-2.67872426 1.39126359 -1.3494684 0.6747342 0 0 Z " fill="#AAAAAA" transform="translate(175,8)"/>
</svg>
