<?xml version="1.0" encoding="UTF-8"?>
<svg version="1.1" xmlns="http://www.w3.org/2000/svg" width="350" height="350">
<path d="M0 0 C2.22768561 0.53771722 3.65707475 0.13031526 5.8125 -0.5625 C5.8125 0.4275 5.8125 1.4175 5.8125 2.4375 C8.37375963 4.74049051 11.16745517 6.21430849 14.26953125 7.671875 C15.12748291 8.07760742 15.98543457 8.48333984 16.86938477 8.90136719 C17.77873779 9.32579102 18.68809082 9.75021484 19.625 10.1875 C20.56335693 10.6299707 21.50171387 11.07244141 22.46850586 11.52832031 C27.92878322 14.09972729 33.40149326 16.64440888 38.875 19.1875 C45.25002219 22.14984475 51.5463452 25.25191292 57.8125 28.4375 C57.8125 31.7716554 57.11711593 33.22216175 55.66015625 36.18359375 C54.99016602 37.56321289 54.99016602 37.56321289 54.30664062 38.97070312 C53.83419922 39.92912109 53.36175781 40.88753906 52.875 41.875 C51.94582083 43.76786705 51.01990649 45.66234111 50.09765625 47.55859375 C49.68394775 48.3983374 49.27023926 49.23808105 48.84399414 50.10327148 C47.90493803 52.22831656 47.29647399 54.17303177 46.8125 56.4375 C46.47916667 57.77083333 46.14583333 59.10416667 45.8125 60.4375 C45.1525 60.4375 44.4925 60.4375 43.8125 60.4375 C43.60753906 61.06398437 43.40257812 61.69046875 43.19140625 62.3359375 C42.78728516 63.56183594 42.78728516 63.56183594 42.375 64.8125 C42.10816406 65.62460938 41.84132812 66.43671875 41.56640625 67.2734375 C40.8125 69.4375 40.8125 69.4375 39.8125 71.4375 C39.1525 71.4375 38.4925 71.4375 37.8125 71.4375 C36.66299948 76.22827545 37.00151596 78.96811659 38.875 83.5 C39.33261719 84.6240625 39.79023438 85.748125 40.26171875 86.90625 C42.30324326 91.55496072 44.49619843 96.122505 46.7734375 100.66015625 C47.92960271 103.75050761 47.82710192 104.42296499 46.8125 107.4375 C43.7181605 113.80756868 39.79458256 119.78139316 36 125.75 C35.47736572 126.58611816 34.95473145 127.42223633 34.41625977 128.28369141 C32.18603373 131.8294251 29.98024043 135.32594987 27.359375 138.59765625 C20.34306464 147.62790755 19.88755844 157.40187926 18.8125 168.4375 C17.90146964 176.90212189 16.64222387 182.12506014 10.8125 188.4375 C10.09191406 189.23929688 9.37132812 190.04109375 8.62890625 190.8671875 C7.09045427 192.57427249 5.54620935 194.27615536 3.99609375 195.97265625 C0.23963206 200.21295558 -3.04820749 204.72856124 -6.1875 209.4375 C-7.22996388 210.49921783 -8.29482346 211.53917486 -9.375 212.5625 C-14.26307663 217.36876781 -18.38929664 222.74019496 -22.1875 228.4375 C-21.79314549 233.76128591 -21.04751846 238.57748154 -17.1875 242.4375 C-16.82334456 244.09770472 -16.49511345 245.76589513 -16.1875 247.4375 C-15.53264786 249.38627684 -14.84431731 251.3240859 -14.125 253.25 C-13.76277344 254.22582031 -13.40054688 255.20164062 -13.02734375 256.20703125 C-12.75019531 256.94308594 -12.47304687 257.67914063 -12.1875 258.4375 C-13.14587056 254.04496828 -14.12539252 249.66372297 -15.2109375 245.30078125 C-15.39172852 244.56335693 -15.57251953 243.82593262 -15.75878906 243.06616211 C-16.12144661 241.59010753 -16.49035888 240.11557236 -16.86621094 238.64282227 C-17.03668945 237.94342529 -17.20716797 237.24402832 -17.3828125 236.5234375 C-17.53766113 235.9051709 -17.69250977 235.2869043 -17.85205078 234.64990234 C-19.06212533 226.66904676 -19.06212533 226.66904676 -16.27905273 222.75024414 C-15.40192627 221.91614014 -14.5247998 221.08203613 -13.62109375 220.22265625 C-13.14938248 219.76322128 -12.6776712 219.30378632 -12.19166565 218.83042908 C-10.6851694 217.36948322 -9.15664577 215.93451348 -7.625 214.5 C-6.12798445 213.06833517 -4.63597954 211.63161072 -3.14485168 210.19381714 C-1.7048964 208.80569213 -0.26104479 207.4216126 1.18286133 206.03759766 C4.09128773 203.16184414 6.79197054 200.17351632 9.42089844 197.04272461 C10.8125 195.4375 10.8125 195.4375 13.5 192.9375 C21.05529589 184.76961255 23.5796889 171.75916594 26.078125 161.15234375 C29.0857561 148.79992871 32.5335584 142.1211399 41.8125 133.4375 C44.15772025 130.71735057 46.38355932 127.9454693 48.56640625 125.09375 C50.8125 122.4375 50.8125 122.4375 53.65234375 120.21875 C57.03891739 117.30347857 58.4796527 115.75359947 59.8125 111.4375 C58.58033443 101.53253172 54.53861501 91.89727111 50.67895508 82.75146484 C49.71287135 80.17143058 49.65635623 78.17001589 49.8125 75.4375 C50.4725 75.4375 51.1325 75.4375 51.8125 75.4375 C52.17601562 74.385625 52.17601562 74.385625 52.546875 73.3125 C54.01732668 69.97221471 55.88998329 67.37255569 58.0625 64.4375 C64.96786752 54.99011863 71.36475005 45.19995799 77.8125 35.4375 C82.4900103 36.07581629 87.1163156 36.84041107 91.75 37.7421875 C92.39259766 37.8668338 93.03519531 37.9914801 93.69726562 38.11990356 C95.73599397 38.51582614 97.77424201 38.91416394 99.8125 39.3125 C101.1471065 39.57176346 102.48174175 39.830879 103.81640625 40.08984375 C106.47720647 40.60642 109.13693729 41.12811237 111.79614258 41.65283203 C114.53513645 42.19215489 117.27707868 42.7111795 120.0222168 43.21826172 C121.37288707 43.47361719 122.72355449 43.72898773 124.07421875 43.984375 C125.27780029 44.20706055 126.48138184 44.42974609 127.72143555 44.65917969 C132.05143524 45.74946 133.96653932 47.02234719 136.8125 50.4375 C141.0364813 59.35592827 139.9783925 70.49817117 140.015625 80.1640625 C140.02132507 81.35059418 140.02702515 82.53712585 140.03289795 83.75961304 C140.04228905 86.26225918 140.04885829 88.76491736 140.05273438 91.26757812 C140.06234982 95.00414067 140.09339391 98.74013061 140.125 102.4765625 C140.30740929 143.76470937 132.42088309 182.69162283 115.8125 220.4375 C107.54982328 221.56101097 99.30864517 222.53678247 90.98828125 223.11328125 C89.51366795 223.22064918 88.03905858 223.32807119 86.56445312 223.43554688 C84.32245446 223.59772348 82.08092367 223.75266687 79.8371582 223.88842773 C77.61465935 224.02571302 75.3958797 224.19193491 73.17578125 224.36328125 C71.87938721 224.45005127 70.58299316 224.53682129 69.24731445 224.6262207 C65.0521224 225.6170959 63.56136672 227.1882565 60.8125 230.4375 C59.97589844 231.31148437 59.13929688 232.18546875 58.27734375 233.0859375 C53.76188504 237.95732881 49.73829886 242.45291143 46.8125 248.4375 C46.1525 248.4375 45.4925 248.4375 44.8125 248.4375 C44.8125 249.4275 44.8125 250.4175 44.8125 251.4375 C45.34617188 250.9528125 45.87984375 250.468125 46.4296875 249.96875 C52.05806425 244.90515846 57.83985555 240.0897671 63.8125 235.4375 C64.39128906 234.86257812 64.97007812 234.28765625 65.56640625 233.6953125 C69.07602026 231.72992866 72.56017914 232.31049624 76.4375 232.625 C77.26548096 232.68034912 78.09346191 232.73569824 78.9465332 232.79272461 C87.59498092 233.40877618 96.20851833 234.37870656 104.8125 235.4375 C105.51171875 237.109375 105.51171875 237.109375 105.8125 239.4375 C103.6547554 243.73928924 100.63301658 247.54520818 97.8125 251.4375 C97.15145264 252.36780029 97.15145264 252.36780029 96.47705078 253.31689453 C89.51605157 263.09186228 81.95542627 272.02624583 73.58154297 280.6171875 C71.84181717 282.40733317 70.12531212 284.21759023 68.41015625 286.03125 C59.94792355 294.86426003 50.76057032 302.3364491 40.8125 309.4375 C40.19294434 309.8804541 39.57338867 310.3234082 38.93505859 310.77978516 C5.5445341 334.37889872 5.5445341 334.37889872 -7.53125 334.125 C-15.56180471 332.61498116 -22.37736218 327.76240165 -29.1875 323.4375 C-29.9599707 322.95104004 -30.73244141 322.46458008 -31.52832031 321.96337891 C-56.66534281 306.00311304 -79.91389172 286.03254365 -98.1875 262.4375 C-99.06275792 261.36136871 -99.94049952 260.28725418 -100.8203125 259.21484375 C-107.72404028 250.73443582 -113.68262717 241.88186825 -119.1875 232.4375 C-119.56616211 231.79538574 -119.94482422 231.15327148 -120.33496094 230.49169922 C-145.1304583 187.9221528 -145.1304583 187.9221528 -141.1875 170.4375 C-122.24780299 171.8913627 -106.20840637 173.89631359 -92.1875 187.4375 C-91.1975 188.0975 -90.2075 188.7575 -89.1875 189.4375 C-90.22783108 187.79082211 -91.26985447 186.14521339 -92.3125 184.5 C-92.89257812 183.58347656 -93.47265625 182.66695312 -94.0703125 181.72265625 C-94.76898438 180.63855469 -95.46765625 179.55445313 -96.1875 178.4375 C-96.76686813 177.37227867 -96.76686813 177.37227867 -97.35794067 176.28553772 C-101.20989036 169.65762079 -104.87236442 167.60398324 -112.109375 165.5234375 C-113.52117035 165.06803085 -113.52117035 165.06803085 -114.96148682 164.60342407 C-117.94485278 163.64255894 -120.93848604 162.7232509 -123.9375 161.8125 C-127.90190242 160.60310715 -131.85147709 159.35575728 -135.796875 158.0859375 C-137.16401642 157.6903212 -137.16401642 157.6903212 -138.55877686 157.28671265 C-140.96601668 156.51212346 -143.04052463 155.77400534 -145.1875 154.4375 C-146.72119141 151.0859375 -146.72119141 151.0859375 -147.1875 147.4375 C-147.35330566 146.45088379 -147.51911133 145.46426758 -147.68994141 144.44775391 C-150.82258566 117.22660881 -151.62096208 89.58980879 -149.4375 62.25 C-149.37602783 61.40880615 -149.31455566 60.5676123 -149.2512207 59.70092773 C-148.73822003 54.67883725 -147.59740203 51.35192836 -144.1875 47.4375 C-139.94940951 44.97147324 -136.15292255 43.85937486 -131.33203125 43.078125 C-129.98627766 42.85096606 -128.64057668 42.6234953 -127.29492188 42.39575195 C-126.59423584 42.28059235 -125.8935498 42.16543274 -125.17163086 42.04678345 C-107.64865718 39.14771137 -89.9825205 35.74281093 -73.25 29.66796875 C-69.8914829 28.50279231 -67.6423558 28.21158343 -64.1875 29.4375 C-65.67850662 39.19681603 -67.30236441 48.80093864 -70.00488281 58.30859375 C-70.9541676 61.7862795 -71.38643608 64.03468515 -70.1875 67.4375 C-68.93708516 69.42595455 -68.93708516 69.42595455 -67.34375 71.37890625 C-66.76077148 72.12261475 -66.17779297 72.86632324 -65.57714844 73.63256836 C-64.95356445 74.4138208 -64.32998047 75.19507324 -63.6875 76 C-63.05618164 76.80123291 -62.42486328 77.60246582 -61.77441406 78.42797852 C-57.53350601 83.79507364 -53.23611045 89.11407504 -48.859375 94.37109375 C-45.7378031 98.22929827 -44.94683846 100.20938469 -45.0625 105.125 C-45.08054687 106.11886719 -45.09859375 107.11273438 -45.1171875 108.13671875 C-45.14039063 108.89597656 -45.16359375 109.65523438 -45.1875 110.4375 C-41.28795362 102.81860237 -41.28795362 102.81860237 -41.1875 94.4375 C-42.40108844 92.24388164 -43.79344868 90.26778147 -45.265625 88.23828125 C-47.70840897 84.67837046 -49.78439619 80.96188048 -51.875 77.1875 C-52.62876197 75.828045 -53.38266265 74.46866688 -54.13671875 73.109375 C-54.48395996 72.47193359 -54.83120117 71.83449219 -55.18896484 71.17773438 C-56.25246722 69.25542567 -56.25246722 69.25542567 -58.01953125 66.890625 C-60.13363694 62.45029599 -58.53374072 58.51702911 -57.09375 54.02734375 C-55.47523557 49.82370211 -53.84391578 45.62633653 -52.1875 41.4375 C-51.82495117 40.50631348 -51.46240234 39.57512695 -51.08886719 38.61572266 C-49.9258096 35.63459147 -48.74646706 32.66038258 -47.5625 29.6875 C-47.19060547 28.73480225 -46.81871094 27.78210449 -46.43554688 26.80053711 C-42.7355506 17.64008895 -38.11110664 14.5764632 -29.5625 10 C-28.71042969 9.53529297 -27.85835938 9.07058594 -26.98046875 8.59179688 C-24.39237232 7.18811674 -21.79345195 5.80772478 -19.1875 4.4375 C-17.83035889 3.72062012 -17.83035889 3.72062012 -16.44580078 2.98925781 C-15.56649902 2.53518555 -14.68719727 2.08111328 -13.78125 1.61328125 C-12.59692383 0.99900269 -12.59692383 0.99900269 -11.38867188 0.37231445 C-7.49952064 -1.27936701 -4.01368658 -1.03209083 0 0 Z M-11.1875 261.4375 C-10.1875 264.4375 -10.1875 264.4375 -10.1875 264.4375 Z " fill="#AAAAAA" transform="translate(180.1875,9.5625)"/>
<path d="" fill="#808080" transform="translate(0,0)"/>
<path d="" fill="#AAAAAA" transform="translate(0,0)"/>
<path d="" fill="#AAAAAA" transform="translate(0,0)"/>
</svg>
