<?xml version="1.0" encoding="UTF-8"?>
<svg version="1.1" xmlns="http://www.w3.org/2000/svg" width="350" height="350">
<path d="M0 0 C2.28863782 1.1157237 4.46856464 2.33923713 6.66113281 3.63330078 C8.31681654 4.55593244 9.97442822 5.47511144 11.63378906 6.39111328 C12.47312988 6.85936523 13.3124707 7.32761719 14.17724609 7.81005859 C24.3658279 13.35467895 35.01349287 18.14726623 45.89550781 22.15283203 C48.47458267 23.10395494 51.00121396 24.13398875 53.53613281 25.19580078 C73.2566309 33.065038 94.15656393 37.13981342 115.03881836 40.49658203 C116.81639526 40.78662109 116.81639526 40.78662109 118.62988281 41.08251953 C119.68498047 41.24969482 120.74007813 41.41687012 121.82714844 41.58911133 C128.44468076 42.975201 132.96353651 45.53895863 136.72363281 51.19580078 C140.14402478 63.6114228 139.06167642 77.57458069 139.03930664 90.30712891 C139.03616879 94.02813659 139.05959334 97.74832961 139.08496094 101.46923828 C139.19307259 142.40468836 132.00122654 183.34168071 113.72363281 220.19580078 C113.25441406 221.19482422 112.78519531 222.19384766 112.30175781 223.22314453 C102.28688473 244.18123568 87.88638292 262.63232133 71.72363281 279.19580078 C71.05895996 279.8809375 70.39428711 280.56607422 69.70947266 281.27197266 C52.58422169 298.86529576 33.77844404 312.98982579 12.46142578 325.19042969 C10.71140325 326.20287599 8.98555235 327.24974947 7.25878906 328.30126953 C0.7591443 332.10094517 -4.69549117 335.14915534 -12.27636719 333.19580078 C-16.90254546 331.34532947 -21.0544624 328.81213682 -25.27636719 326.19580078 C-26.09250488 325.70208984 -26.90864258 325.20837891 -27.74951172 324.69970703 C-43.51440955 315.14279277 -57.68088002 304.51715041 -71.24121094 292.04345703 C-72.94022535 290.50097369 -74.6655933 289.0559561 -76.46386719 287.63330078 C-79.34819725 285.13354806 -81.71781409 282.5007745 -84.18261719 279.59814453 C-86.19264633 277.29186109 -88.27887542 275.07407464 -90.38769531 272.85839844 C-102.1294589 260.44621802 -112.16513388 246.62725775 -121.27636719 232.19580078 C-121.96214844 231.12716797 -122.64792969 230.05853516 -123.35449219 228.95751953 C-134.63872128 210.40962328 -143.10170719 186.84715073 -146.71386719 165.44580078 C-146.83947021 164.71047119 -146.96507324 163.9751416 -147.09448242 163.2175293 C-147.3586934 161.66067147 -147.62078305 160.1034523 -147.88085938 158.54589844 C-148.26482161 156.2644043 -148.66435902 153.98605873 -149.06542969 151.70751953 C-154.07894182 122.57826011 -154.95831609 92.28877414 -152.58886719 62.82080078 C-152.53569336 62.03294189 -152.48251953 61.24508301 -152.42773438 60.43334961 C-151.85093441 54.81204688 -149.97236036 50.50133622 -146.27636719 46.19580078 C-140.7784472 42.03318726 -135.44025634 41.28849686 -128.71386719 40.38330078 C-106.1882605 36.95129528 -84.42823899 31.69243981 -63.27636719 23.19580078 C-61.3832204 22.45340317 -59.48998959 21.71121979 -57.59667969 20.96923828 C-45.30446657 16.09559039 -33.16472984 10.8689275 -21.75683594 4.14111328 C-20.09587891 3.17818359 -20.09587891 3.17818359 -18.40136719 2.19580078 C-16.98210937 1.32955078 -16.98210937 1.32955078 -15.53417969 0.44580078 C-10.35130531 -1.54283207 -5.29373259 -1.87017966 0 0 Z " fill="#A9A9A9" transform="translate(182.2763671875,10.80419921875)"/>
</svg>
